<svg xmlns="http://www.w3.org/2000/svg" viewBox="0 0 352.77 88.317">
  <path fill-rule="evenodd" d="M144.468 0c3.93.64 7.94.983 11.764 2.015 3.112.84 6.2 2.184 8.946 3.875 4.903 3.019 7.791 7.635 8.089 13.428.178 3.467.009 7.064-.733 10.443-1.386 6.304-5.594 10.396-11.856 12.696.791.464 1.316.81 1.872 1.093 16.036 8.152 14.544 29.006 2.585 37.543-5.582 3.984-11.903 6.027-18.616 6.175-15.345.338-30.698.271-46.048.364-1.578.01-3.155.002-4.89.002v-3.201c0-27.507 0-55.014-.003-82.521 0-.638-.042-1.274-.065-1.912h48.955zm-27.172 19.144v14.433c10.038 0 19.867.069 29.693-.035 3.861-.041 6.893-3.616 6.789-7.572-.102-3.88-3.137-6.797-7.175-6.818-5.595-.029-11.191-.008-16.787-.008h-12.52zm-.096 48.118c9.534 0 18.789.01 28.043-.005 4.928-.007 8.405-3.181 8.346-7.566-.056-4.211-3.367-7.105-8.21-7.116-8.618-.018-17.237-.009-25.855.002-.761.001-1.521.103-2.324.16v14.525zM352.77 87.833h-76.675V85.01c0-27.402-.004-54.805.016-82.207 0-.934.226-1.868.346-2.802h76.313v19.198h-55.137v14.25h49.6v19.066h-49.558V67.82h3.063c15.99 0 31.979.004 47.969-.006 1.354-.001 2.709-.091 4.062-.139.001 6.719.001 13.438.001 20.158zM82.073 0v20.008c-1 0-1.92-.003-2.839 0-11.118.042-22.238-.022-33.353.196-3.152.062-6.407.572-9.411 1.522-10.535 3.331-16.207 12.224-15.426 23.657.711 10.401 7.99 18.55 18.488 20.373 3.527.612 7.15.871 10.734.917 9.757.127 19.517.055 29.275.062h2.696v20.784c-.552.078-.931.183-1.308.179-11.756-.12-23.523.013-35.266-.467-9.239-.377-18.271-2.136-26.198-7.436C8.719 72.61 2.151 62.76.415 49.836c-.062-.463-.273-.908-.415-1.36v-9.119c.172-.68.415-1.351.507-2.042 2.258-17 15.601-31.804 32.308-35.605C36.533.864 40.373.556 44.156 0h37.917zM250.305 42.442c1.59.915 3.026 1.624 4.338 2.516 5.111 3.476 7.879 8.259 7.885 14.521.009 8.639.019 17.277.017 25.915 0 .696-.086 1.392-.139 2.203h-20.429c-.045-.907-.121-1.754-.122-2.602-.011-6.479.022-12.958-.015-19.437-.046-8.208-5.16-13.249-13.399-13.257-7.263-.008-14.526-.002-22.123-.002v35.298h-21.046V.536c.516-.077.971-.204 1.426-.203 16.636.043 33.276-.107 49.904.283 4.608.109 9.379 1.295 13.723 2.927 8.513 3.199 12.331 10.029 12.489 18.92.153 8.65-3.287 15.332-11.251 19.315-.354.18-.701.371-1.258.664zm-43.909-9.13c10.414 0 20.699.252 30.961-.121 4.241-.154 6.709-4.911 5.467-8.981-.932-3.056-3.606-4.866-7.431-4.879-9.026-.032-18.053-.015-27.08-.003-.617 0-1.234.115-1.917.183v13.801z" clip-rule="evenodd"/>
</svg>