<svg xmlns="http://www.w3.org/2000/svg" viewBox="0 0 217.572 56.327">
  <path fill="#AE835D" d="M66.523 47.234h1.536l4.792 8.616h-1.586l-1.102-2.121h-5.827l-1.102 2.121h-1.419l4.708-8.616zm3.056 5.393l-2.321-4.408-2.321 4.408h4.642zM78.979 55.85h-1.437v-7.447h-3.94v-1.169h9.334v1.169h-3.957M95.225 48.586h-1.87v-.868l3.189-.551v8.683h-1.319M110.002 53.796h-6.529v-1.052l6.21-5.594h1.637v5.594h1.97v1.052h-1.97v2.054h-1.318v-2.054zm0-5.61l-5.01 4.559h5.01v-4.559zM149.165 47.164v7.485h6.592v1.188h-8.016v-8.673M121.276 47.751c2.345 0 4.252 1.689 4.252 3.766s-1.907 3.766-4.252 3.766-4.252-1.689-4.252-3.766 1.908-3.766 4.252-3.766m0-1.043c-2.925 0-5.295 2.153-5.295 4.81s2.37 4.81 5.295 4.81 5.296-2.153 5.296-4.81-2.371-4.81-5.296-4.81M135.202 47.751c2.344 0 4.252 1.689 4.252 3.766s-1.908 3.766-4.252 3.766c-2.345 0-4.252-1.689-4.252-3.766s1.907-3.766 4.252-3.766m0-1.043c-2.925 0-5.296 2.153-5.296 4.81s2.371 4.81 5.296 4.81c2.924 0 5.295-2.153 5.295-4.81s-2.371-4.81-5.295-4.81"/>
  <path fill="#55565A" d="M10.427 31.461c0 1.782-.735 3.102-3.644 3.102-2.558 0-4.225-1.048-4.225-3.761V17.081H0v-.389h1.24c2.327 0 5.04-1.627 5.117-5.233h.349v5.233h4.109v.389H6.706v14.613c0 1.512.348 2.055 1.434 2.055 1.318 0 1.938-.854 1.938-2.287v-2.908h.349v2.907zM11.559 34.174v-.388h2.325c.234 0 .388-.077.388-1.318V7.854c0-1.163-.077-1.512-1.085-1.512h-1.473v-.389h3.373c1.357 0 2.635-.192 3.101-.464h.309v26.979c0 1.241.156 1.318.388 1.318h2.287v.388h-9.613zm9.612-17.56c.698-.232 2.055-.426 3.218-.426 3.101 0 5.078 1.124 5.078 4.845v11.435c0 1.241.116 1.318.35 1.318h2.363v.388h-9.535v-.388h2.325c.194 0 .348-.077.348-1.318V20.607c0-2.442-1.046-3.916-2.712-3.916-.504 0-1.164.156-1.435.272v-.349zM40.797 16.653c-2.131.659-2.751 1.744-2.751 8.915 0 6.94.659 8.026 2.751 8.646v.348c-3.604-.775-7.325-3.217-7.325-9.032s3.721-8.296 7.325-9.265v.388zm2.365-.347c3.412.58 6.164 3.527 6.164 8.798h-8.102v-.349h1.086c2.791 0 2.946-.852 2.946-3.024 0-3.565-.697-4.69-2.094-5.193v-.232zm-.387 17.986c2.83-.077 4.962-1.823 5.737-5.273h.426c-.698 3.645-3.062 5.428-6.163 5.622v-.349zM70.496 17.92l-.323.923c-4.018 11.5-3.28 14.78.739 14.78h.692v.463H60.703v-.463h.14c2.679 0 4.386-2.678 8.867-14.825l.324-.878h.462zm3.601-11.085L76.684 0h.463l9.097 25.265c2.449 6.695 3.374 8.357 6.051 8.357h.508v.463H77.747v-.463h.923c3.558 0 3.326-3.185.924-10.53h-6.097v-.555h5.959L74.097 6.835zM93.79 34.085v-.463h3.466c.276 0 .461-.092.461-1.707V3.372c0-1.617-.185-1.709-.461-1.709H93.79v-.461h14.272v.461h-4.202c-.277 0-.463.092-.463 1.709v30.714H93.79zm13.996-.462h1.386c6.559 0 7.526-1.522 11.222-9.514h.415c-.321 3.326-.645 6.653-.876 9.977h-12.147v-.463zM132.603 1.202v32.884h-9.604v-.463h3.463c.276 0 .461-.092.461-1.707V3.372c0-1.617-.185-1.709-.461-1.709h-3.463v-.461h9.604zm3.002 15.655h.37c4.942 0 5.402-3.279 5.681-6.42h.416v12.978h-.416c-.462-4.525-1.849-6.095-5.728-6.095h-.323v-.463zm1.202-15.655h6.234c2.679 0 3.465-.186 4.111-.462h.369l.786 9.33h-.416c-2.448-6.329-5.22-8.407-10.301-8.407h-.784v-.461zm.046 32.421h.555c7.989 0 8.636-1.894 12.193-9.514h.416c-.323 3.51-.786 7.021-1.019 10.532h-.367c-.646-.37-1.386-.555-4.065-.555h-7.713v-.463zM166.334 1.108c-5.496 1.154-6.327 7.297-6.327 15.842 0 8.776.971 15.75 6.327 17.274v.324c-6.742-1.062-12.839-6.327-12.839-16.768 0-10.53 5.912-16.119 12.839-16.997v.325zm4.065-.369c2.817.277 4.942 1.062 6.097 1.062.646 0 1.386-.231 2.077-.738h.371l.461 9.559h-.416c-2.032-6.004-4.757-8.96-8.59-9.559V.739zm0 33.578c5.034-.786 7.667-5.312 8.682-10.53h.416l-.461 10.207h-.37c-.6-.416-1.386-.647-2.125-.647-1.615 0-3.186 1.016-6.142 1.294v-.324zM193.646 31.916c0 1.615.185 1.707.463 1.707h3.464v.463H184.04v-.463h3.464c.278 0 .462-.092.462-1.707V3.372c0-1.617-.184-1.709-.462-1.709h-3.464v-.461h13.533v.461h-3.464c-.278 0-.463.092-.463 1.709v28.544zm6.283-15.705c6.097 0 10.392 1.569 10.946 8.73.462 5.958.691 8.681 4.48 8.681h2.217v.463h-5.08c-6.005 0-7.114-2.078-7.574-8.405-.463-6.743-1.109-9.007-7.621-9.007h-1.155v-.462h3.787zm2.448-5.542l.739-.786c2.262-2.448 4.618-5.034 4.618-6.42 0-1.201-.971-1.801-2.911-1.801h-.876v-.46h12.008v.461h-.276c-2.403 0-5.635 1.709-11.502 7.945l-1.016 1.062h-.784z"/>
</svg>