<?xml version="1.0" encoding="utf-8"?>
<!-- Generator: Adobe Illustrator 16.0.0, SVG Export Plug-In . SVG Version: 6.00 Build 0)  -->
<!DOCTYPE svg PUBLIC "-//W3C//DTD SVG 1.1//EN" "http://www.w3.org/Graphics/SVG/1.1/DTD/svg11.dtd">
<svg version="1.1" id="Layer_1" xmlns="http://www.w3.org/2000/svg" xmlns:xlink="http://www.w3.org/1999/xlink" x="0px" y="0px"
	 width="512px" height="512px" viewBox="0 0 512 512" enable-background="new 0 0 512 512" xml:space="preserve">
<path fill="#54565a" d="M424.602-1.7H87.299C38.167-1.7-1.8,38.268-1.8,87.398v337.303c0,49.131,39.966,89.099,89.099,89.099
	h181.253V329.748h-50.915v-76.371h50.915v-49.641c0-53.204,43.276-96.48,96.479-96.48h62.116v76.37h-62.116
	c-11.199,0-20.109,9.165-20.109,20.11v49.641h65.422v76.371h-65.422v183.798h35.64h44.04c49.131,0,89.099-39.968,89.099-89.099
	V87.398C513.7,38.268,473.732-1.7,424.602-1.7z"/>
</svg>
