<svg xmlns="http://www.w3.org/2000/svg" viewBox="0 0 125 166">
  <path d="M11.664.584v8.037H2.86V.584H.022v19.503H2.86v-8.75h8.804v8.75h2.839V.584h-2.839M16.344.584h2.966v3.093h-2.966zM16.471 6.164h2.714v13.923h-2.714zM29.65 14.913l-.041.552c-.108 1.469-1.238 2.418-2.878 2.418-2.09 0-3.183-2.406-3.183-4.782 0-2.352 1.093-4.731 3.183-4.731 2.441 0 2.812 1.333 2.878 2.336l.037.557h2.829l-.029-.624c-.132-2.86-2.378-4.858-5.461-4.858-4.316 0-6.282 3.807-6.282 7.344 0 3.656 1.911 7.344 6.18 7.344 3.194 0 5.116-1.687 5.558-4.878l.094-.678H29.65M38.556 12.306l7.185-6.142h-3.78l-5.352 4.513V.584h-2.718v19.503h2.718v-6.024l5.846 6.024h3.581l-7.48-7.781"/>
  <path d="M51.536 5.781c-4.488 0-6.532 3.807-6.532 7.344s2.044 7.344 6.532 7.344c4.486 0 6.529-3.807 6.529-7.344s-2.043-7.344-6.529-7.344m0 12.102c-2.921 0-3.693-3.112-3.693-4.758 0-1.645.772-4.755 3.693-4.755 2.914 0 3.685 3.11 3.685 4.755 0 1.646-.771 4.758-3.685 4.758zM64.324 12.306l7.191-6.142H67.73l-5.351 4.513V.584h-2.717v19.503h2.717v-6.024l5.848 6.024h3.576l-7.479-7.781M90.247 14.457h-.489l-.096.479c-.418 2.079-2.305 2.819-3.931 2.819-4.978 0-5.516-5.187-5.516-7.418s.538-7.422 5.516-7.422c1.012 0 3.398.257 3.718 2.63l.068.516h2.943l-.048-.641C92.12 1.574 88.768.203 85.731.203c-6.256 0-8.483 5.235-8.483 10.134 0 6.25 3.251 10.132 8.483 10.132 3.504 0 6.334-2.185 6.882-5.312l.123-.7h-2.489M99.755 5.781c-4.487 0-6.531 3.807-6.531 7.344s2.044 7.344 6.531 7.344c4.489 0 6.534-3.807 6.534-7.344s-2.045-7.344-6.534-7.344m0 12.102c-2.918 0-3.688-3.112-3.688-4.758 0-1.645.771-4.755 3.688-4.755 2.922 0 3.694 3.11 3.694 4.755 0 1.646-.772 4.758-3.694 4.758zM107.759.584h2.713v19.503h-2.713zM124.429 14.074v-.596c0-4.963-2.272-7.697-6.4-7.697-4.314 0-6.278 3.807-6.278 7.344 0 3.656 1.91 7.344 6.176 7.344 3.188 0 5.269-1.491 6.184-4.43l.24-.773h-2.821l-.139.405c-.445 1.323-1.646 2.212-2.984 2.212-2.874 0-3.623-2.167-3.778-3.809h9.8m-2.921-2.584h-6.77c.325-1.558 1.329-3.12 3.312-3.12 2.443 0 3.222 1.739 3.458 3.12zM89.238 45.218l.345-.256-.315.19L57.099 65.13l-.555.977 33.081-20.368-.387-.521M99.771 59.421L40.38 94.588l-3.967 6.991 65.632-39.091-2.274-3.067M19.062 132.15l-6.931 12.212 106.478-59.539-5.363-7.233-94.184 54.56M107.408 69.718l-79.292 46.478-6.569 11.576 90.186-52.223-4.325-5.831M103.15 63.977l-68.453 40.625-4.608 8.119 75.844-44.991-2.783-3.753M92.136 49.126L52.56 73.127l-1.372 2.418L92.82 50.048l-.684-.922M90.048 46.311l-34.199 21.02-.68 1.2 35.324-21.62-.445-.6M93.472 50.927L50.149 77.375l-1.764 3.108 46.043-28.267-.956-1.289M95.195 53.25L47.539 81.974l-2.183 3.847 50.909-31.128-1.07-1.443M97.175 55.921L44.369 87.559l-2.675 4.715 56.961-34.359-1.48-1.994"/>
  <path d="M61.269 51.977L87.8 36.081l1.374 6.864.542-.334.122 1.431.822-.51.165 1.664.854-.526.015 1.703.899-.551.117 1.958 1.003-.614.149 2.441 1.286-.788.194 3.033 1.521-.934.324 3.408 1.695-1.036.432 4.096.169.226 1.981-1.195.54 4.596.874 1.176 2.241-1.335.758 5.38.889 1.199 2.556-1.516.889 6.163 2.36 3.181 3.026-1.753 1.032 7.225 2.828 3.812 4.383-2.457V22.659H.033v61.097l53.543-38.64 7.242-2.379L.033 92.469v54.727H5.26l56.247-92.29-.238-2.929"/>
  <path d="M90.929 47.498L54.375 69.93l-.972 1.712 38.126-23.335-.6-.809M14.119 146.998h69.986l-.873-15.943s.024-9.335 9.217-14.852c9.262-5.557 18.256.678 20.947 7.136 1.326 3.186 4.911 13.768 8.199 23.659h2.244V86.209l-109.72 60.789M5.66 158.329h2.399l-1.234-3.247-1.165 3.247"/>
  <path d="M0 166h123.814v-16.615H0V166zm11.168-3.482H9.651l-.061-.16-.988-2.59H5.155l-1 2.75H2.366l.13-.34 3.469-9.03.062-.161h1.589l.064.154 3.862 9.377h-.374zm12.71 0h-1.459l-.059-.168s-.844-2.394-.842-2.39c-.071-.19-.165-.365-.281-.52-.116-.156-.253-.293-.403-.408-.149-.114-.316-.203-.496-.265-.179-.062-.372-.094-.572-.094h-1.982v3.844h-1.688v-9.531h4.264c.505 0 .971.044 1.385.132.427.091.8.245 1.109.458.316.219.564.514.737.878.169.354.256.794.256 1.304 0 .346-.055.668-.162.958-.109.29-.264.552-.463.775-.196.221-.434.41-.705.559-.103.059-.233.085-.346.132.433.317.781.826 1.036 1.529-.001-.002.905 2.47.905 2.47l.124.337h-.358zm7.047-3.299c.127.414.311.767.547 1.046.232.275.517.487.846.629.334.145.715.218 1.131.218.678 0 1.211-.156 1.586-.464.372-.308.579-.726.633-1.278l.021-.228h1.721l-.026.274c-.048.522-.183.992-.4 1.395-.217.404-.504.75-.85 1.028-.345.277-.753.488-1.213.628-.451.137-.942.207-1.46.207-.668 0-1.285-.117-1.831-.347-.55-.233-1.025-.571-1.413-1.003-.385-.432-.687-.954-.896-1.559-.206-.598-.311-1.275-.311-2.02 0-.735.105-1.413.311-2.013.209-.607.511-1.132.896-1.56.388-.428.863-.763 1.413-.996.546-.23 1.162-.349 1.831-.349.513 0 1.001.076 1.451.222.451.149.855.358 1.203.625.35.27.64.599.861.979.221.383.359.812.408 1.272l.03.277h-1.719l-.027-.22c-.029-.239-.1-.457-.21-.65-.112-.194-.256-.357-.44-.497s-.409-.25-.667-.327c-.264-.079-.561-.118-.883-.118-.428 0-.816.074-1.154.222-.332.145-.617.358-.846.637-.233.283-.416.636-.543 1.048-.13.42-.195.907-.195 1.447 0 .557.065 1.052.195 1.475zm19.406-5.982v9.28h-1.688v-4.25h-4.218v4.25h-1.689v-9.531h1.689v3.687h4.218v-3.687h1.688v.251zm7.602 0v9.28h-1.689v-9.531h1.689v.251zm12.758 0v1.343h-2.994v7.938h-1.688v-7.938h-2.965v-1.594h7.647v.251zm12.236 7.937v1.344h-7.218v-9.531h7v1.594h-5.312v2.218h4.969v1.595h-4.969v2.53h5.53v.25zm6.873-1.955c.129.416.313.77.549 1.046.231.275.517.487.845.629.334.145.715.218 1.133.218.678 0 1.211-.156 1.584-.464s.58-.726.633-1.277l.021-.229h1.721l-.026.273c-.046.524-.181.994-.397 1.396-.218.402-.502.748-.853 1.028-.345.278-.754.489-1.211.628-.451.137-.942.207-1.46.207-.67 0-1.286-.117-1.833-.347-.55-.233-1.024-.571-1.412-1.003-.384-.43-.685-.953-.894-1.559-.209-.598-.313-1.276-.313-2.02 0-.734.104-1.412.313-2.013.209-.608.512-1.134.894-1.56.388-.428.862-.763 1.412-.996.545-.23 1.163-.349 1.833-.349.513 0 1.001.076 1.451.222.449.147.853.358 1.203.625.349.269.64.599.86.979.222.384.358.812.406 1.273l.03.276H94.57l-.025-.22c-.03-.239-.1-.457-.209-.649-.114-.195-.258-.359-.439-.498-.189-.142-.408-.25-.671-.327-.263-.079-.56-.118-.881-.118-.429 0-.817.074-1.153.222-.332.144-.617.358-.847.637-.231.282-.416.634-.545 1.048-.129.424-.194.911-.194 1.447-.001.553.065 1.048.194 1.475zm18.739-5.982v1.343h-2.993v7.938h-1.687v-7.938h-2.966v-1.594h7.646v.251zm11.961 7.676c-.18.356-.434.671-.754.933-.315.261-.698.465-1.135.61-.435.145-.914.218-1.427.218-.668 0-1.26-.082-1.76-.242-.511-.164-.942-.396-1.278-.688-.347-.299-.607-.659-.779-1.065-.172-.399-.267-.841-.28-1.308l-.007-.259h1.677l.019.23c.021.297.096.558.221.771.125.214.291.394.492.535.207.144.451.254.723.323.289.072.591.108.929.108.3 0 .576-.032.826-.093.239-.061.446-.148.616-.262.162-.106.283-.235.375-.392.087-.149.13-.317.13-.512 0-.205-.039-.377-.113-.511-.073-.129-.202-.247-.387-.35-.203-.115-.478-.222-.815-.321-.351-.101-.785-.207-1.296-.314-.534-.114-1-.25-1.381-.407-.39-.162-.713-.353-.959-.571-.256-.226-.444-.486-.562-.777-.115-.285-.174-.612-.174-.97 0-.405.086-.784.256-1.125.168-.34.405-.637.711-.881.301-.241.668-.431 1.095-.565.42-.131.894-.199 1.405-.199.529 0 1.017.064 1.453.193.438.129.828.319 1.151.571.328.254.59.569.78.938.189.371.291.795.304 1.259l.006.258h-1.67l-.022-.225c-.062-.602-.328-1.4-1.953-1.4-.616 0-1.084.112-1.397.332-.291.205-.432.457-.432.774 0 .15.024.28.067.384.039.089.117.173.229.249.135.09.328.177.575.256.263.085.601.173 1.005.261.409.095.778.188 1.098.279.318.092.599.18.837.262.235.084.469.197.686.336.226.144.427.318.601.522.179.208.32.447.429.716.106.274.162.585.162.926-.002.431-.094.831-.277 1.193z"/>
  <path d="M20.421 154.487h-2.637v2.592h2.449c.351 0 .658-.024.911-.073.234-.045.427-.119.573-.218.136-.094.235-.215.302-.372.072-.166.108-.38.108-.638 0-.555-.177-1.291-1.706-1.291"/>
  <path fill="none" d="M0 0h125v166H0z"/>
</svg>