<?xml version="1.0" encoding="utf-8"?>
<!-- Generator: Adobe Illustrator 16.0.0, SVG Export Plug-In . SVG Version: 6.00 Build 0)  -->
<!DOCTYPE svg PUBLIC "-//W3C//DTD SVG 1.1//EN" "http://www.w3.org/Graphics/SVG/1.1/DTD/svg11.dtd">
<svg version="1.1" id="Layer_1" xmlns="http://www.w3.org/2000/svg" xmlns:xlink="http://www.w3.org/1999/xlink" x="0px" y="0px"
	 width="512px" height="512px" viewBox="0 0 512 512" enable-background="new 0 0 512 512" xml:space="preserve">
<g>
	<path fill="#54565a" d="M255.925,184.499c-39.347,0-71.426,32.079-71.426,71.426c0,39.348,32.079,71.426,71.426,71.426
		c39.348,0,71.426-32.078,71.426-71.426C327.351,216.578,295.272,184.499,255.925,184.499z"/>
	<path fill="#54565a" d="M421.834,2.3H90.016C41.647,2.3,2.3,41.647,2.3,90.016v332.068c0,48.368,39.348,87.716,87.716,87.716
		h332.068c48.368,0,87.716-39.348,87.716-87.716V90.016C509.55,41.647,470.203,2.3,421.834,2.3z M255.925,402.536
		c-80.699,0-146.611-65.662-146.611-146.611c0-80.949,65.662-146.611,146.611-146.611c80.949,0,146.611,65.662,146.611,146.611
		C402.536,336.874,336.624,402.536,255.925,402.536z M456.169,92.021c0,20.049-16.29,36.34-36.339,36.34l0,0
		c-20.05,0-36.34-16.291-36.34-36.34l0,0c0-20.049,16.29-36.339,36.34-36.339l0,0C439.879,55.682,456.169,71.972,456.169,92.021
		L456.169,92.021z"/>
</g>
</svg>
