<svg xmlns="http://www.w3.org/2000/svg" viewBox="0 0 217.572 56.326">
  <path fill="white" d="M67.257 48.22l2.321 4.407h-4.642l2.321-4.407zm-.734-.986l-4.708 8.615h1.419l1.102-2.12h5.828l1.101 2.12h1.586l-4.793-8.615h-1.535zM73.602 47.234v1.168h3.94v7.448h1.437v-7.448h3.956v-1.168M93.354 47.718v.868h1.87v7.264h1.32v-8.683M110.002 48.186v4.56h-5.01l5.01-4.56zm-.318-1.036l-6.211 5.595v1.051h6.529v2.054h1.317v-2.054h1.971v-1.051h-1.971V47.15h-1.635zM147.741 47.163v8.673h8.015v-1.188h-6.591v-7.485M121.276 47.75c2.345 0 4.252 1.69 4.252 3.768 0 2.076-1.907 3.765-4.252 3.765s-4.252-1.688-4.252-3.765c0-2.078 1.908-3.768 4.252-3.768m0-1.043c-2.925 0-5.295 2.153-5.295 4.811 0 2.655 2.37 4.809 5.295 4.809 2.924 0 5.295-2.153 5.295-4.809 0-2.658-2.371-4.811-5.295-4.811M135.201 47.75c2.346 0 4.252 1.69 4.252 3.768 0 2.076-1.906 3.765-4.252 3.765-2.344 0-4.251-1.688-4.251-3.765 0-2.078 1.907-3.768 4.251-3.768m0-1.043c-2.924 0-5.295 2.153-5.295 4.811 0 2.655 2.371 4.809 5.295 4.809 2.925 0 5.295-2.153 5.295-4.809 0-2.658-2.37-4.811-5.295-4.811M10.427 31.462c0 1.782-.735 3.101-3.644 3.101-2.558 0-4.225-1.048-4.225-3.761V17.08H0v-.389h1.24c2.327 0 5.04-1.626 5.117-5.232h.349v5.232h4.109v.389H6.706v14.614c0 1.512.348 2.055 1.434 2.055 1.318 0 1.938-.854 1.938-2.287v-2.909h.349v2.909zM11.558 34.175v-.389h2.325c.234 0 .388-.077.388-1.318V7.854c0-1.163-.077-1.512-1.085-1.512h-1.473v-.389h3.373c1.357 0 2.635-.192 3.101-.464h.309v26.979c0 1.241.156 1.318.388 1.318h2.287v.389h-9.613zm9.613-17.561c.698-.232 2.055-.426 3.218-.426 3.101 0 5.078 1.124 5.078 4.845v11.435c0 1.241.116 1.318.35 1.318h2.363v.389h-9.535v-.389h2.325c.194 0 .348-.077.348-1.318V20.607c0-2.442-1.046-3.916-2.712-3.916-.504 0-1.164.156-1.435.272v-.349zM40.796 16.653c-2.131.659-2.751 1.744-2.751 8.915 0 6.939.659 8.025 2.751 8.645v.35c-3.604-.776-7.325-3.218-7.325-9.032 0-5.815 3.721-8.296 7.325-9.265v.387zm2.366-.348c3.412.58 6.164 3.527 6.164 8.798h-8.102v-.349h1.086c2.791 0 2.946-.852 2.946-3.024 0-3.565-.697-4.69-2.094-5.193v-.232zm-.388 17.986c2.83-.078 4.962-1.822 5.737-5.272h.426c-.698 3.644-3.062 5.428-6.163 5.622v-.35zM70.496 17.92l-.323.923c-4.018 11.501-3.28 14.78.739 14.78h.692v.462H60.703v-.462h.14c2.679 0 4.386-2.678 8.867-14.825l.324-.878h.462zm3.6-11.085L76.684 0h.463l9.097 25.265c2.449 6.695 3.374 8.358 6.051 8.358h.508v.462H77.747v-.462h.923c3.558 0 3.326-3.186.924-10.53h-6.097v-.555h5.959l-5.36-15.703zM93.79 34.085v-.462h3.466c.276 0 .461-.092.461-1.708V3.372c0-1.618-.185-1.71-.461-1.71H93.79v-.46h14.272v.46h-4.202c-.277 0-.463.092-.463 1.71v30.713H93.79zm13.995-.462h1.387c6.558 0 7.526-1.523 11.221-9.515h.416c-.321 3.327-.646 6.653-.876 9.977h-12.147v-.462zM132.602 1.202v32.883h-9.604v-.462h3.463c.277 0 .461-.092.461-1.708V3.372c0-1.618-.184-1.71-.461-1.71h-3.463v-.46h9.604zm3.002 15.655h.371c4.942 0 5.402-3.279 5.681-6.419h.416v12.978h-.416c-.463-4.526-1.849-6.096-5.728-6.096h-.324v-.463zm1.203-15.655h6.235c2.678 0 3.464-.186 4.109-.463h.369l.787 9.33h-.416c-2.449-6.329-5.22-8.407-10.301-8.407h-.784v-.46zm.045 32.421h.556c7.988 0 8.636-1.895 12.193-9.515h.416c-.324 3.511-.787 7.021-1.018 10.532h-.368c-.647-.371-1.386-.555-4.066-.555h-7.713v-.462zM166.334 1.108c-5.497 1.154-6.328 7.297-6.328 15.842 0 8.776.972 15.75 6.328 17.275v.323c-6.743-1.062-12.839-6.327-12.839-16.767 0-10.53 5.912-16.119 12.839-16.997v.324zm4.065-.369c2.816.277 4.941 1.062 6.097 1.062.646 0 1.385-.231 2.077-.738h.371l.461 9.559h-.416c-2.032-6.004-4.757-8.96-8.59-9.559V.739zm0 33.577c5.033-.785 7.667-5.312 8.682-10.53h.416l-.461 10.207h-.37c-.6-.415-1.386-.646-2.125-.646-1.616 0-3.186 1.015-6.142 1.293v-.324zM193.646 31.915c0 1.615.185 1.708.462 1.708h3.464v.462H184.04v-.462h3.464c.277 0 .462-.093.462-1.708V3.372c0-1.617-.185-1.709-.462-1.709h-3.464v-.462h13.532v.461h-3.464c-.277 0-.462.092-.462 1.709v28.544zm6.283-15.704c6.096 0 10.391 1.569 10.946 8.73.462 5.957.69 8.682 4.48 8.682h2.216v.462h-5.08c-6.005 0-7.113-2.077-7.573-8.405-.463-6.743-1.109-9.007-7.621-9.007h-1.155v-.462h3.787zm2.448-5.542l.738-.786c2.263-2.448 4.618-5.034 4.618-6.42 0-1.201-.97-1.801-2.911-1.801h-.876v-.461h12.009v.461h-.276c-2.404 0-5.635 1.709-11.502 7.945l-1.016 1.062h-.784z"/>
</svg>