<?xml version="1.0" encoding="utf-8"?>
<!-- Generator: Adobe Illustrator 16.0.0, SVG Export Plug-In . SVG Version: 6.00 Build 0)  -->
<!DOCTYPE svg PUBLIC "-//W3C//DTD SVG 1.1//EN" "http://www.w3.org/Graphics/SVG/1.1/DTD/svg11.dtd">
<svg version="1.1" id="Layer_1" xmlns="http://www.w3.org/2000/svg" xmlns:xlink="http://www.w3.org/1999/xlink" x="0px" y="0px"
	 width="512px" height="512px" viewBox="0 0 512 512" enable-background="new 0 0 512 512" xml:space="preserve">
<rect x="-20.5" y="1.731" fill="#020202" width="557" height="497.539"/>
<path fill="#FFFFFF" d="M481.854-89.2H30.045C-35.766-89.2-89.3-35.664-89.3,30.146v451.809
	c0,65.811,53.534,119.346,119.345,119.346h451.809c65.811,0,119.346-53.535,119.346-119.346V30.146
	C601.2-35.664,547.665-89.2,481.854-89.2z M453.554,418.189c-32.394,5.796-9.891,42.283-29.668,38.191
	c-19.775-4.094-60.354-14.663-87.633,5.796c-35.464,26.257-58.65,32.396-80.474,32.396c-21.823,0-45.01-6.481-80.474-32.396
	c-27.279-20.118-67.856-9.89-87.633-5.796c-19.778,4.092,2.728-32.396-29.667-38.191c-32.394-5.795-71.949-29.664-48.08-36.826
	c23.869-7.16,96.159-39.554,102.979-81.837c7.161-42.282-26.938-42.282-43.646-55.24c-17.049-12.617-21.142-38.191,8.525-32.394
	c29.665,5.796,42.282,12.616,42.282-13.981c0-26.938-21.483-180.723,135.371-180.723c156.854,0,135.372,153.786,135.372,180.723
	c0,26.938,12.617,19.777,42.285,13.981c29.663-5.797,25.573,19.776,8.523,32.394c-17.05,12.616-50.809,12.616-43.648,55.24
	c7.162,42.622,79.11,75.018,102.979,81.837C525.84,388.525,486.287,412.733,453.554,418.189z"/>
</svg>
