<?xml version="1.0" encoding="utf-8"?>
<!-- Generator: Adobe Illustrator 16.0.0, SVG Export Plug-In . SVG Version: 6.00 Build 0)  -->
<!DOCTYPE svg PUBLIC "-//W3C//DTD SVG 1.1//EN" "http://www.w3.org/Graphics/SVG/1.1/DTD/svg11.dtd">
<svg version="1.1" id="Layer_1" xmlns="http://www.w3.org/2000/svg" xmlns:xlink="http://www.w3.org/1999/xlink" x="0px" y="0px"
	 width="512px" height="512px" viewBox="0 0 512 512" enable-background="new 0 0 512 512" xml:space="preserve">
<rect fill="#54565a" x="0.841" y="34.5" width="505.318" height="453"/>
<path fill="#FFFFFF" d="M490.997-104.7H18.903C-49.863-104.7-105.8-48.761-105.8,20.003v472.094
	c0,68.764,55.937,124.703,124.703,124.703h472.094c68.764,0,124.703-55.939,124.703-124.703V20.003
	C615.7-48.761,559.761-104.7,490.997-104.7z M451.805,157.534c0,0,11.756,124.348-69.479,212.353
	C231.612,532.716,7.502,417.987,7.502,417.987c96.2,3.208,149.288-38.125,149.288-38.125c-64.845-8.194-91.213-74.463-91.213-74.463
	c26.368,6.767,43.112,0,43.112,0c-73.041-24.94-79.453-102.972-79.453-102.972c19.953,18.172,48.1,13.184,48.1,13.184
	C7.859,169.293,34.224,69.53,34.224,69.53s94.418,112.945,218.766,111.163c0,0-11.757-75.89,51.307-111.163
	C365.58,35.682,412.967,65.967,429,94.826c16.746-3.563,46.317-15.32,65.201-31.71c0.358,30.999-35.629,55.939-35.629,55.939
	c33.139-4.988,51.307-16.746,51.307-16.746C495.627,136.87,451.805,157.534,451.805,157.534z"/>
</svg>
